<?xml version="1.0" encoding="utf-8"?>
<!-- Generator: Adobe Illustrator 15.0.0, SVG Export Plug-In . SVG Version: 6.00 Build 0)  -->
<!DOCTYPE svg PUBLIC "-//W3C//DTD SVG 1.1//EN" "http://www.w3.org/Graphics/SVG/1.1/DTD/svg11.dtd">
<svg version="1.1" id="Layer_1" xmlns="http://www.w3.org/2000/svg" xmlns:xlink="http://www.w3.org/1999/xlink" x="0px" y="0px"
	 width="374px" height="374px" viewBox="0 0 374 374" enable-background="new 0 0 374 374" xml:space="preserve">
<g>
	
		<linearGradient id="SVGID_1_" gradientUnits="userSpaceOnUse" x1="156.7681" y1="-402.6292" x2="156.768" y2="309.761" gradientTransform="matrix(1 0 0 -1 24.9448 365.3589)">
		<stop  offset="0.322" style="stop-color:#A163F5"/>
		<stop  offset="0.466" style="stop-color:#B074EE"/>
		<stop  offset="0.752" style="stop-color:#D8A1DD"/>
		<stop  offset="0.898" style="stop-color:#EFBAD3"/>
	</linearGradient>
	<path fill="url(#SVGID_1_)" d="M326.239,208.577V82.79c0-3.845-2.186-7.356-5.636-9.051L186.159,7.705
		c-2.801-1.374-6.081-1.374-8.882,0L42.834,73.55c-3.455,1.692-5.646,5.204-5.647,9.051v125.976
		c0,33.381,21.617,74.269,49.217,93.083l89.628,61.131c3.427,2.337,7.937,2.337,11.363,0l89.626-61.127
		C304.622,282.845,326.239,241.958,326.239,208.577L326.239,208.577z M265.661,284.999l-83.948,57.258l-83.949-57.258
		c-21.906-14.935-40.412-49.931-40.412-76.422V88.89l124.36-60.905l124.36,61.085v119.506
		C306.073,235.068,287.567,270.064,265.661,284.999z"/>
	
		<linearGradient id="SVGID_2_" gradientUnits="userSpaceOnUse" x1="156.7681" y1="-402.616" x2="156.768" y2="309.7587" gradientTransform="matrix(1 0 0 -1 24.9448 365.3589)">
		<stop  offset="0.322" style="stop-color:#A163F5"/>
		<stop  offset="0.466" style="stop-color:#B074EE"/>
		<stop  offset="0.752" style="stop-color:#D8A1DD"/>
		<stop  offset="0.898" style="stop-color:#EFBAD3"/>
	</linearGradient>
	<path fill="url(#SVGID_2_)" d="M231.558,142.676l-66.123,64.556l-33.565-32.77c-3.96-3.916-10.344-3.88-14.26,0.079
		c-3.916,3.961-3.881,10.345,0.079,14.26c0.031,0.03,0.062,0.06,0.094,0.089l40.61,39.65c3.917,3.824,10.17,3.824,14.088,0
		l73.165-71.434c4.008-3.863,4.126-10.248,0.263-14.257c-3.867-4.009-10.247-4.127-14.259-0.263c-0.032,0.03-0.062,0.061-0.092,0.09
		V142.676z"/>
</g>
</svg>
