<svg id="Layer_1" height="512" viewBox="0 0 512 512" width="512" xmlns="http://www.w3.org/2000/svg" xmlns:xlink="http://www.w3.org/1999/xlink" data-name="Layer 1"><linearGradient id="linear-gradient" gradientUnits="userSpaceOnUse" x1="120.938" x2="120.938" y1="471.841" y2="47.937"><stop offset=".322" stop-color="#a163f5"/><stop offset=".466" stop-color="#b074ee"/><stop offset=".752" stop-color="#d8a1dd"/><stop offset=".898" stop-color="#efbad3"/></linearGradient><linearGradient id="linear-gradient-2" x1="391.062" x2="391.063" xlink:href="#linear-gradient" y1="471.841" y2="47.937"/><linearGradient id="linear-gradient-3" x1="256" x2="256" xlink:href="#linear-gradient" y1="471.841" y2="47.937"/><path d="m194.6 409.461c-.109-.055-.218-.105-.328-.152l-36.822-15.709v-21.746a70.445 70.445 0 0 0 32.022-59.006v-3.719a22.567 22.567 0 0 0 13.018-26.093 18.256 18.256 0 0 0 -12.519-13.254v-19.92a71.768 71.768 0 0 0 -143.535 0v20.488a18.249 18.249 0 0 0 -10.9 12.685 22.568 22.568 0 0 0 13.019 26.094v3.719a70.492 70.492 0 0 0 35.87 61.352v19.4l-36.82 15.713c-.11.047-.219.1-.328.152a40.876 40.876 0 0 0 -22.319 32.968c-.014.165-.02.332-.02.5v43.99a6 6 0 0 0 6 6h180a6 6 0 0 0 6-6v-43.99c0-.166-.007-.333-.021-.5a40.876 40.876 0 0 0 -22.317-32.972zm-136.164-159.599a59.768 59.768 0 0 1 119.535 0v20.559c-12.253 1.187-44.885 2.379-72.079-14.143 24.994-3.716 44.959-11.2 59.389-22.267a6 6 0 1 0 -7.3-9.522c-32.326 24.79-90.292 22.176-90.866 22.145a6.012 6.012 0 0 0 -6.3 5.628l-1.315 21.631-1.063-.546zm2.116 62.986v-8.16a6 6 0 0 0 -4.965-5.911 10.548 10.548 0 0 1 -8.4-12.887 6.182 6.182 0 0 1 2.816-3.907 11.239 11.239 0 0 0 2.592 1.855l7.779 3.994a7.332 7.332 0 0 0 10.657-5.94c0-.038 0-.075.008-.111l1.4-23.04c3.777-.008 9.17-.1 15.593-.537 39.317 33.12 94.6 23.84 96.975 23.423a5.946 5.946 0 0 0 1.3-.4 6.291 6.291 0 0 1 4.522 4.664 10.629 10.629 0 0 1 .3 2.52 10.5 10.5 0 0 1 -8.7 10.37 6.1 6.1 0 0 0 -4.965 6.008v8.063a58.46 58.46 0 0 1 -116.92 0zm58.46 70.46a70.042 70.042 0 0 0 26.438-5.167v14.393a66.525 66.525 0 0 1 -49.025 0v-12.961a70.149 70.149 0 0 0 22.587 3.735zm85.926 97.609h-168v-37.729a28.806 28.806 0 0 1 15.552-22.917l39.148-16.706a78.55 78.55 0 0 0 58.6 0l39.148 16.706a28.81 28.81 0 0 1 15.553 22.917z" fill="url(#linear-gradient)"/><path d="m450.1 370.648a35.094 35.094 0 0 0 18.029-3.959 35.176 35.176 0 0 0 18.929-31.254c0-10.647-6.344-20.5-13.9-27.105a21.813 21.813 0 0 0 3.6-12 22.077 22.077 0 0 0 -.629-5.236 18.105 18.105 0 0 0 -14.118-13.4l1.2-17.383a72.317 72.317 0 1 0 -144.291 0l1.2 17.45a18.018 18.018 0 0 0 -14.167 13.338 22.063 22.063 0 0 0 -.629 5.235 21.8 21.8 0 0 0 3.2 11.38 35.271 35.271 0 0 0 5.486 58.986 35.111 35.111 0 0 0 9.231 3.286 35.561 35.561 0 0 0 8.815.677 35.219 35.219 0 0 0 21.61 22.7l-31.756 11.46a5.839 5.839 0 0 0 -.646.277 39.669 39.669 0 0 0 -21.663 32c-.014.166-.021.333-.021.5v49.576a6 6 0 0 0 6 6h171.291a6 6 0 0 0 6-6v-49.576c0-.166-.007-.332-.02-.5a39.669 39.669 0 0 0 -21.663-32 5.758 5.758 0 0 0 -.646-.277l-31.954-11.523a34.8 34.8 0 0 0 4.161-1.833 35.313 35.313 0 0 0 17.351-20.819zm12.465-14.591a23.023 23.023 0 0 1 -6.067 2.161 23.7 23.7 0 0 1 -9.766-.081 6 6 0 0 0 -7.25 5.089 23.266 23.266 0 0 1 -12.3 17.606 22.315 22.315 0 0 1 -9.242 2.559v-9.954a68.757 68.757 0 0 0 41.4-55.624 21.714 21.714 0 0 0 4.6-1.543c5.888 4.655 11.117 12.064 11.117 19.165a23.214 23.214 0 0 1 -12.488 20.622zm-71.523 55.834-14.9-20.077v-14.554a68.638 68.638 0 0 0 29.793.01v14.544zm-44.067-197.719a60.317 60.317 0 0 1 104.268 45.307l-1.2 17.472c-11.18-1.664-19.53-6.073-24.851-13.165-11.128-14.83-6.237-37.1-6.189-37.312a6 6 0 0 0 -10.483-5.161l-16.834 20.51-.064.078a47.6 47.6 0 0 1 -37.492 18.118 36.451 36.451 0 0 0 -22.648 7.929l-.584-8.469a59.716 59.716 0 0 1 16.077-45.307zm-29.36 79.775a6 6 0 0 1 6.054-4.525 6.8 6.8 0 0 1 1.257.116 6.041 6.041 0 0 0 1.115.1h.5.044a5.951 5.951 0 0 0 .72-.051c.072-.01.143-.022.216-.034q.291-.048.577-.124c.058-.016.117-.029.175-.046a5.99 5.99 0 0 0 .711-.261c.035-.016.068-.035.1-.051a5.9 5.9 0 0 0 .565-.3c.065-.039.128-.079.191-.12a5.8 5.8 0 0 0 .488-.357c.043-.035.089-.067.132-.1a6.179 6.179 0 0 0 .476-.455c.02-.021.037-.046.057-.068.048-.053.092-.109.137-.163.129-.154.25-.312.363-.476.038-.057.078-.113.116-.172a5.971 5.971 0 0 0 .381-.692l.013-.023a24.36 24.36 0 0 1 22.125-14.123 59.532 59.532 0 0 0 46.86-22.622l5.053-6.156c.605 8.7 2.967 18.937 9.494 27.675 8.433 11.287 21.79 17.556 39.7 18.631h.18s.12.01.18.01h.455a6.041 6.041 0 0 0 1.115-.105 6.177 6.177 0 0 1 7.311 4.492 9.972 9.972 0 0 1 -9.673 12.339h-1.08a6 6 0 0 0 -6 5.8 56.691 56.691 0 0 1 -113.319 0 6 6 0 0 0 -6-5.8h-1.125a9.971 9.971 0 0 1 -9.672-12.338zm25.06 69.3a6 6 0 0 0 -7.248-5.09 23.586 23.586 0 0 1 -9.781.08 22.8 22.8 0 0 1 -3.136-.876 23.294 23.294 0 0 1 -15.448-21.933 23.451 23.451 0 0 1 10.463-19.432 21.747 21.747 0 0 0 5.27 1.832 68.76 68.76 0 0 0 41.354 55.6v10.009a23.188 23.188 0 0 1 -21.474-20.185zm128.2 74.619v43.315h-159.295v-43.319a27.609 27.609 0 0 1 14.752-21.873l41.658-15.033 17.056 22.986v19.942a6 6 0 0 0 12 0v-19.942l17.132-23.089 41.942 15.136a27.6 27.6 0 0 1 14.751 21.872z" fill="url(#linear-gradient-2)"/><g fill="url(#linear-gradient-3)"><path d="m342 138.966v-74.849a6 6 0 0 0 -3.354-5.386l-80-39.293a6 6 0 0 0 -5.285 0l-80 39.181a6 6 0 0 0 -3.361 5.386v74.961c0 19.863 12.864 44.193 29.286 55.389l53.333 36.374a6 6 0 0 0 6.762 0l53.332-36.373c16.423-11.197 29.287-35.527 29.287-55.39zm-36.048 45.475-49.952 34.069-49.953-34.069c-13.035-8.887-24.047-29.712-24.047-45.475v-71.219l74-36.241 74 36.348v71.112c0 15.763-11.012 36.588-24.048 45.475z"/><path d="m285.659 99.752-39.345 38.414-19.973-19.5a6 6 0 1 0 -8.383 8.586l24.165 23.593a6 6 0 0 0 8.383 0l43.536-42.506a6 6 0 1 0 -8.383-8.586z"/></g></svg>