<?xml version="1.0" encoding="utf-8"?>
<!-- Generator: Adobe Illustrator 15.0.0, SVG Export Plug-In . SVG Version: 6.00 Build 0)  -->
<!DOCTYPE svg PUBLIC "-//W3C//DTD SVG 1.1//EN" "http://www.w3.org/Graphics/SVG/1.1/DTD/svg11.dtd">
<svg version="1.1" id="Layer_1" xmlns="http://www.w3.org/2000/svg" xmlns:xlink="http://www.w3.org/1999/xlink" x="0px" y="0px"
	 width="512px" height="512px" viewBox="0 0 512 512" enable-background="new 0 0 512 512" xml:space="preserve">
<linearGradient id="SVGID_1_" gradientUnits="userSpaceOnUse" x1="231.155" y1="108.032" x2="231.155" y2="517.2834" gradientTransform="matrix(1 0 0 -1 24.9448 503.3589)">
	<stop  offset="0.322" style="stop-color:#A163F5"/>
	<stop  offset="0.466" style="stop-color:#B074EE"/>
	<stop  offset="0.752" style="stop-color:#D8A1DD"/>
	<stop  offset="0.898" style="stop-color:#EFBAD3"/>
</linearGradient>
<path fill="url(#SVGID_1_)" d="M256.1,237.387c29.992-0.034,54.297-24.34,54.33-54.331v-24.165
	c0.128-30.006-24.093-54.435-54.099-54.562c-30.006-0.129-54.435,24.092-54.562,54.099c0,0.154,0,0.309,0,0.464v24.165
	C201.803,213.049,226.108,237.353,256.1,237.387L256.1,237.387z M213.769,158.887c-0.113-23.379,18.747-42.423,42.126-42.536
	c23.378-0.113,42.422,18.747,42.535,42.126c0.001,0.137,0.001,0.273,0,0.41v24.165c-0.024,23.368-18.961,42.308-42.33,42.335
	c-23.367-0.027-42.304-18.964-42.33-42.331L213.769,158.887z"/>
<linearGradient id="SVGID_2_" gradientUnits="userSpaceOnUse" x1="372.5139" y1="108.032" x2="372.5139" y2="517.2833" gradientTransform="matrix(1 0 0 -1 24.9448 503.3589)">
	<stop  offset="0.322" style="stop-color:#A163F5"/>
	<stop  offset="0.466" style="stop-color:#B074EE"/>
	<stop  offset="0.752" style="stop-color:#D8A1DD"/>
	<stop  offset="0.898" style="stop-color:#EFBAD3"/>
</linearGradient>
<path fill="url(#SVGID_2_)" d="M397.463,253.207c26.661-0.033,48.268-21.639,48.3-48.301V183.75
	c0-26.678-21.627-48.304-48.305-48.304s-48.305,21.626-48.305,48.304v21.152C349.184,231.569,370.796,253.178,397.463,253.207
	L397.463,253.207z M361.163,183.75c0-20.05,16.254-36.304,36.304-36.304c20.051,0,36.305,16.254,36.305,36.304v21.152
	c0,20.051-16.254,36.305-36.305,36.305c-20.05,0-36.304-16.254-36.304-36.305V183.75z"/>
<linearGradient id="SVGID_3_" gradientUnits="userSpaceOnUse" x1="231.0554" y1="108.032" x2="231.0554" y2="517.2835" gradientTransform="matrix(1 0 0 -1 24.9448 503.3589)">
	<stop  offset="0.322" style="stop-color:#A163F5"/>
	<stop  offset="0.466" style="stop-color:#B074EE"/>
	<stop  offset="0.752" style="stop-color:#D8A1DD"/>
	<stop  offset="0.898" style="stop-color:#EFBAD3"/>
</linearGradient>
<path fill="url(#SVGID_3_)" d="M431.689,257.162c-3.168-0.193-4.773,1.785-6.343,3.699c-6.629,8.14-16.577,12.853-27.074,12.828
	c-0.3,0-0.608,0-0.912-0.011c-10.777-0.241-20.832-5.475-27.212-14.166c-1.152-1.586-3.017-2.497-4.976-2.434
	c-9.682,0.215-19.119,3.078-27.289,8.276c-10.622-12.853-26.098-20.725-42.74-21.742c-3.164-0.189-4.723,1.714-6.531,3.915
	c-14.276,17.447-39.994,20.018-57.441,5.741c-2.616-2.142-4.957-4.599-6.967-7.316c-1.16-1.577-3.019-2.486-4.976-2.434
	c-15.733,0.364-30.696,6.891-41.667,18.175c-1.175,1.2-2.28,2.453-3.341,3.733c-7.645-4.874-16.406-7.718-25.456-8.265
	c-3.169-0.193-4.773,1.785-6.344,3.699c-12.234,14.953-34.273,17.158-49.227,4.924c-2.243-1.835-4.25-3.942-5.974-6.272
	c-1.158-1.58-3.019-2.489-4.976-2.434C53.182,257.821,30.006,281.591,30,310.663v47.6c0,3.313,2.687,6,6,6h124.371v8.6
	c0,3.314,2.686,6,6,6l0,0h179.449c3.314,0,6-2.686,6-6l0,0v-8.6H476c3.313,0,6-2.687,6-6v-47.6
	C481.973,282.347,459.948,258.927,431.689,257.162L431.689,257.162z M42,352.26v-41.6c0.133-21.391,16.36-39.244,37.641-41.413
	c16.871,19.717,46.532,22.025,66.25,5.154c1.794-1.535,3.47-3.203,5.013-4.99c5.898,0.772,11.561,2.809,16.601,5.97
	c-4.7,8.763-7.152,18.556-7.137,28.5v48.378L42,352.26z M339.821,366.86H172.371v-62.978c0.007-25.106,19.209-46.039,44.222-48.206
	c18.782,22.325,52.105,25.197,74.432,6.416c2.26-1.902,4.357-3.99,6.269-6.242c24.266,2.985,42.503,23.584,42.525,48.032
	L339.821,366.86z M470,352.26h-118.18v-48.378c0.006-9.972-2.473-19.787-7.211-28.562c5.429-3.398,11.577-5.479,17.953-6.075
	c16.869,19.72,46.53,22.03,66.25,5.161c1.796-1.536,3.474-3.206,5.018-4.994c20.688,2.748,36.148,20.381,36.17,41.25V352.26z"/>
<linearGradient id="SVGID_4_" gradientUnits="userSpaceOnUse" x1="89.5911" y1="108.032" x2="89.591" y2="517.2833" gradientTransform="matrix(1 0 0 -1 24.9448 503.3589)">
	<stop  offset="0.322" style="stop-color:#A163F5"/>
	<stop  offset="0.466" style="stop-color:#B074EE"/>
	<stop  offset="0.752" style="stop-color:#D8A1DD"/>
	<stop  offset="0.898" style="stop-color:#EFBAD3"/>
</linearGradient>
<path fill="url(#SVGID_4_)" d="M66.232,204.902c0,26.678,21.627,48.305,48.305,48.305s48.305-21.627,48.305-48.305V183.75
	c0-26.678-21.627-48.304-48.305-48.304s-48.305,21.626-48.305,48.304V204.902z M78.232,183.75c0-20.05,16.254-36.304,36.305-36.304
	s36.305,16.254,36.305,36.304v21.152c0,20.051-16.254,36.305-36.305,36.305s-36.305-16.254-36.305-36.305V183.75z"/>
</svg>
