<?xml version="1.0"?>
<svg xmlns="http://www.w3.org/2000/svg" xmlns:xlink="http://www.w3.org/1999/xlink" id="Layer_1" data-name="Layer 1" viewBox="0 0 512 512" width="512" height="512"><defs><linearGradient id="linear-gradient" x1="301.555" y1="492" x2="301.555" y2="7.405" gradientUnits="userSpaceOnUse"><stop offset="0.322" stop-color="#a163f5"/><stop offset="0.466" stop-color="#b074ee"/><stop offset="0.752" stop-color="#d8a1dd"/><stop offset="0.898" stop-color="#efbad3"/></linearGradient><linearGradient id="linear-gradient-2" x1="227.302" y1="492" x2="227.302" y2="7.405" xlink:href="#linear-gradient"/><linearGradient id="linear-gradient-3" x1="256" y1="492" x2="256" y2="7.405" xlink:href="#linear-gradient"/></defs><title>Message ads text </title><path d="M296,107h11.115a6,6,0,0,0,0-12H296a6,6,0,0,0,0,12Z" style="fill:url(#linear-gradient)"/><path d="M227.3,414a21,21,0,1,0,21,21A21.024,21.024,0,0,0,227.3,414Zm0,30a9,9,0,1,1,9-9A9.01,9.01,0,0,1,227.3,444Z" style="fill:url(#linear-gradient-2)"/><path d="M432.176,147.371H353.3V81a46.052,46.052,0,0,0-46-46h-160a46.053,46.053,0,0,0-46,46V238.066H75.215a22.115,22.115,0,0,0-22.09,22.09V334.38a22.114,22.114,0,0,0,22.09,22.09H101.3V431a46.053,46.053,0,0,0,46,46h160a46.052,46.052,0,0,0,46-46V296.255h78.874a26.73,26.73,0,0,0,26.7-26.7V174.07A26.73,26.73,0,0,0,432.176,147.371ZM65.125,334.38V260.156a10.1,10.1,0,0,1,10.09-10.09H199.39a10.1,10.1,0,0,1,10.089,10.09V334.38a10.1,10.1,0,0,1-10.089,10.09h-6.547a11.513,11.513,0,0,0-11.42,9.441c-1.418,8.025-4.661,13.076-7.671,16.167-1.471-10.014-6.2-25.608-26.219-25.608H75.215A10.1,10.1,0,0,1,65.125,334.38ZM307.3,465h-160a34.039,34.039,0,0,1-34-34V405h228v26A34.038,34.038,0,0,1,307.3,465Zm34-72h-228V356.47h34.231c10.928,0,13.651,6.96,14.851,19.8a31.179,31.179,0,0,0,.758,5.264,6.219,6.219,0,0,0,5.106,4.7,5.928,5.928,0,0,0,.878.066,6.085,6.085,0,0,0,2.754-.663c3.6-1.442,17.392-8.254,21.275-29.166h6.235a22.114,22.114,0,0,0,22.089-22.09V260.156a22.115,22.115,0,0,0-22.089-22.09H113.3V107h163a6,6,0,0,0,0-12h-163V81a34.039,34.039,0,0,1,34-34h160a34.038,34.038,0,0,1,34,34V95h-14a6,6,0,0,0,0,12h14v40.371H272.429a26.73,26.73,0,0,0-26.7,26.7v95.486a26.73,26.73,0,0,0,26.7,26.7h8.423a1.172,1.172,0,0,1,1.181.814c4.739,26.822,22.328,35.228,26.517,36.869a6.093,6.093,0,0,0,2.812.691,5.945,5.945,0,0,0,.88-.066,6.314,6.314,0,0,0,5.163-4.8,39.319,39.319,0,0,0,.92-6.472c1.331-14.246,3.925-27.034,20.816-27.034H341.3ZM446.875,269.556a14.716,14.716,0,0,1-14.7,14.7H339.141c-12.469,0-21.875,5.26-27.2,15.211-3.478,6.5-4.638,13.822-5.249,19.521-4.667-3.816-10.548-11.031-12.84-24.006a13.1,13.1,0,0,0-13-10.726h-8.423a14.716,14.716,0,0,1-14.7-14.7V174.07a14.716,14.716,0,0,1,14.7-14.7H432.176a14.716,14.716,0,0,1,14.7,14.7Z" style="fill:url(#linear-gradient-3)"/></svg>
