<?xml version="1.0" encoding="utf-8"?>
<!-- Generator: Adobe Illustrator 15.0.0, SVG Export Plug-In . SVG Version: 6.00 Build 0)  -->
<!DOCTYPE svg PUBLIC "-//W3C//DTD SVG 1.1//EN" "http://www.w3.org/Graphics/SVG/1.1/DTD/svg11.dtd">
<svg version="1.1" id="Layer_1" xmlns="http://www.w3.org/2000/svg" xmlns:xlink="http://www.w3.org/1999/xlink" x="0px" y="0px"
	 width="170.08px" height="204.09px" viewBox="0 0 170.08 204.09" enable-background="new 0 0 170.08 204.09" xml:space="preserve">
<g>
	<g>
		<path fill="none" d="M44.174,101.885c0,2.527,2.105,4.631,4.629,4.631c2.528,0,4.633-2.104,4.633-4.631
			c0-2.527-2.105-4.421-4.633-4.421C46.279,97.464,44.174,99.358,44.174,101.885z"/>
		<g>
			<path fill="none" d="M112.381,97.464c-2.526,0-4.422,1.895-4.422,4.421c0,2.525,1.896,4.631,4.422,4.631
				c2.524,0,4.632-2.104,4.632-4.631C117.013,99.358,114.905,97.464,112.381,97.464z"/>
			<path fill="#B9C6CF" d="M112.381,92.2H89.453v19.58h22.928c5.476,0,9.892-4.422,9.892-9.895
				C122.272,96.622,117.854,92.2,112.381,92.2z M112.381,106.516c-2.526,0-4.422-2.104-4.422-4.631c0-2.527,1.896-4.421,4.422-4.421
				c2.524,0,4.632,1.895,4.632,4.421C117.013,104.41,114.905,106.516,112.381,106.516z"/>
		</g>
		<path fill="#B9C6CF" d="M39.119,101.885c0,5.473,4.211,9.895,9.685,9.895h23.323V92.2H48.803
			C43.33,92.2,39.119,96.622,39.119,101.885z M53.436,101.885c0,2.527-2.105,4.631-4.633,4.631c-2.524,0-4.629-2.104-4.629-4.631
			c0-2.527,2.105-4.421,4.629-4.421C51.331,97.464,53.436,99.358,53.436,101.885z"/>
	</g>
	<path fill="none" d="M80.734,97.471c-2.525,0-4.627,2.104-4.631,4.625c0.004,2.521,2.106,4.412,4.631,4.412
		c2.524,0,4.625-1.891,4.631-4.412C85.359,99.575,83.258,97.471,80.734,97.471z"/>
	<path fill="none" d="M80.734,129.261c-2.523,0-4.627,2.1-4.631,4.623c0,0.404,0.073,0.794,0.175,1.171
		c0.534,1.919,2.338,3.259,4.456,3.259c2.118,0,3.922-1.34,4.455-3.259c0.103-0.377,0.176-0.767,0.176-1.171
		C85.359,131.36,83.256,129.261,80.734,129.261z"/>
	<path fill="none" d="M80.734,161.047c-2.525,0-4.633,2.106-4.633,4.633c0,2.524,2.108,4.633,4.633,4.633
		c2.526,0,4.631-2.106,4.631-4.633S83.26,161.047,80.734,161.047z"/>
	<path d="M80.734,106.508c-2.525,0-4.627-1.891-4.631-4.412c0,0.002-0.002,0.004-0.002,0.008c0,2.525,2.108,4.42,4.633,4.42
		c2.526,0,4.631-1.896,4.631-4.42c0-0.004,0-0.006,0-0.008C85.359,104.617,83.258,106.508,80.734,106.508z"/>
	<path d="M85.365,133.892c0-0.002,0-0.006,0-0.008c0,0.404-0.073,0.794-0.176,1.171C85.292,134.684,85.365,134.301,85.365,133.892z"
		/>
	<path d="M76.102,133.892c0,0.409,0.073,0.792,0.177,1.163c-0.102-0.377-0.175-0.767-0.175-1.171
		C76.104,133.886,76.102,133.89,76.102,133.892z"/>
	<path d="M80.734,138.313c-2.118,0-3.922-1.34-4.456-3.259c0.534,1.966,2.338,3.453,4.456,3.453c2.118,0,3.922-1.487,4.455-3.453
		C84.656,136.974,82.852,138.313,80.734,138.313z"/>
	<path d="M80.734,129.245c-2.525,0-4.633,2.103-4.633,4.63c0,0.002,0.002,0.006,0.002,0.009c0.004-2.523,2.108-4.623,4.631-4.623
		c2.522,0,4.625,2.1,4.631,4.623c0-0.003,0-0.007,0-0.009C85.365,131.348,83.26,129.245,80.734,129.245z"/>
	<path d="M80.734,97.456c-2.525,0-4.633,2.106-4.633,4.631c0,0.004,0.002,0.008,0.002,0.01c0.004-2.521,2.106-4.625,4.631-4.625
		c2.524,0,4.625,2.104,4.631,4.625c0-0.002,0-0.006,0-0.01C85.365,99.562,83.26,97.456,80.734,97.456z"/>
	<path fill="#4F6B88" d="M80.944,84.551c-5.002,0-9.203-3.694-9.894-8.345v25.898v31.771v31.805c0,5.476,4.21,9.683,9.685,9.683
		c5.473,0,9.684-4.207,9.684-9.683v-31.805v-31.771V74.867C90.418,80.132,86.207,84.551,80.944,84.551z M76.102,133.875
		c0-2.527,2.108-4.63,4.633-4.63c2.526,0,4.631,2.103,4.631,4.63c0,0.002,0,0.006,0,0.009c0,0.002,0,0.006,0,0.008
		c0,0.409-0.073,0.792-0.176,1.163c-0.533,1.966-2.337,3.453-4.455,3.453c-2.118,0-3.922-1.487-4.456-3.453
		c-0.104-0.371-0.177-0.754-0.177-1.163c0-0.002,0.002-0.006,0.002-0.008C76.104,133.881,76.102,133.877,76.102,133.875z
		 M85.365,102.104c0,2.525-2.105,4.42-4.631,4.42c-2.525,0-4.633-1.896-4.633-4.42c0-0.004,0.002-0.006,0.002-0.008
		s-0.002-0.006-0.002-0.01c0-2.525,2.108-4.631,4.633-4.631c2.526,0,4.631,2.106,4.631,4.631c0,0.004,0,0.008,0,0.01
		S85.365,102.1,85.365,102.104z M80.734,170.313c-2.525,0-4.633-2.107-4.633-4.634s2.108-4.633,4.633-4.633
		c2.526,0,4.631,2.106,4.631,4.633C85.365,168.204,83.26,170.313,80.734,170.313z"/>
	<path fill="#B9C6CF" d="M112.729,33.184c-20.182,0-37.185,14.497-40.989,33.601c-0.339,1.706-0.57,3.446-0.691,5.22
		c-0.067,0.946-0.108,1.899-0.108,2.862c0,0.454,0.041,0.901,0.108,1.339c0.691,4.651,4.892,8.345,9.894,8.345
		c5.263,0,9.474-4.419,9.474-9.684c0-12.21,10.104-22.105,22.312-22.105c5.477,0,9.685-4.421,9.685-9.895
		C122.415,37.603,118.207,33.184,112.729,33.184z M80.944,79.288c-2.528,0-4.633-1.895-4.633-4.421s2.105-4.631,4.633-4.631
		c2.527,0,4.421,2.104,4.421,4.631S83.471,79.288,80.944,79.288z M112.729,47.5c-2.523,0-4.418-2.105-4.418-4.632
		c0-2.524,1.895-4.419,4.418-4.419c2.528,0,4.633,1.895,4.633,4.419C117.362,45.394,115.259,47.5,112.729,47.5z"/>
</g>
</svg>
