<?xml version="1.0"?>
<svg xmlns="http://www.w3.org/2000/svg" xmlns:xlink="http://www.w3.org/1999/xlink" id="Layer_1" data-name="Layer 1" viewBox="0 0 512 512" width="512" height="512"><defs><linearGradient id="linear-gradient" x1="261.338" y1="480" x2="261.338" y2="23.369" gradientUnits="userSpaceOnUse"><stop offset="0.322" stop-color="#a163f5"/><stop offset="0.466" stop-color="#b074ee"/><stop offset="0.752" stop-color="#d8a1dd"/><stop offset="0.898" stop-color="#efbad3"/></linearGradient><linearGradient id="linear-gradient-2" x1="187.086" y1="480" x2="187.086" y2="23.369" xlink:href="#linear-gradient"/><linearGradient id="linear-gradient-3" x1="116.286" y1="480" x2="116.286" y2="23.369" xlink:href="#linear-gradient"/><linearGradient id="linear-gradient-4" x1="171.485" y1="480" x2="171.485" y2="23.369" xlink:href="#linear-gradient"/><linearGradient id="linear-gradient-5" x1="245.886" y1="480" x2="245.886" y2="23.369" xlink:href="#linear-gradient"/><linearGradient id="linear-gradient-6" x1="128.286" y1="480" x2="128.286" y2="23.369" xlink:href="#linear-gradient"/><linearGradient id="linear-gradient-7" x1="201.485" y1="480" x2="201.485" y2="23.369" xlink:href="#linear-gradient"/><linearGradient id="linear-gradient-8" x1="263.886" y1="480" x2="263.886" y2="23.369" xlink:href="#linear-gradient"/><linearGradient id="linear-gradient-9" x1="106.686" y1="480" x2="106.686" y2="23.369" xlink:href="#linear-gradient"/><linearGradient id="linear-gradient-10" x1="158.286" y1="480" x2="158.286" y2="23.369" xlink:href="#linear-gradient"/><linearGradient id="linear-gradient-11" x1="242.286" y1="480" x2="242.286" y2="23.369" xlink:href="#linear-gradient"/><linearGradient id="linear-gradient-13" x1="182.286" y1="480" x2="182.286" y2="23.369" xlink:href="#linear-gradient"/><linearGradient id="linear-gradient-14" x1="255.957" y1="480" x2="255.957" y2="23.369" xlink:href="#linear-gradient"/></defs><title>Search_1</title><path d="M255.78,83H266.9a6,6,0,0,0,0-12H255.78a6,6,0,1,0,0,12Z" style="fill:url(#linear-gradient)"/><path d="M187.086,389.629a21,21,0,1,0,21,21A21.024,21.024,0,0,0,187.086,389.629Zm0,30a9,9,0,1,1,9-9A9.01,9.01,0,0,1,187.086,419.629Z" style="fill:url(#linear-gradient-2)"/><path d="M99.485,154h33.6a6,6,0,0,0,0-12h-33.6a6,6,0,0,0,0,12Z" style="fill:url(#linear-gradient-3)"/><path d="M160.686,154h21.6a6,6,0,0,0,0-12h-21.6a6,6,0,0,0,0,12Z" style="fill:url(#linear-gradient-4)"/><path d="M211.086,148a6,6,0,0,0,6,6h57.6a6,6,0,0,0,0-12h-57.6A6,6,0,0,0,211.086,148Z" style="fill:url(#linear-gradient-5)"/><path d="M99.485,210h57.6a6,6,0,0,0,0-12h-57.6a6,6,0,0,0,0,12Z" style="fill:url(#linear-gradient-6)"/><path d="M218.285,210a6,6,0,0,0,0-12h-33.6a6,6,0,0,0,0,12Z" style="fill:url(#linear-gradient-7)"/><path d="M274.686,198h-21.6a6,6,0,0,0,0,12h21.6a6,6,0,0,0,0-12Z" style="fill:url(#linear-gradient-8)"/><path d="M113.886,254h-14.4a6,6,0,0,0,0,12h14.4a6,6,0,0,0,0-12Z" style="fill:url(#linear-gradient-9)"/><path d="M175.086,254h-33.6a6,6,0,0,0,0,12h33.6a6,6,0,0,0,0-12Z" style="fill:url(#linear-gradient-10)"/><path d="M274.686,254h-64.8a6,6,0,1,0,0,12h64.8a6,6,0,0,0,0-12Z" style="fill:url(#linear-gradient-11)"/><path d="M113.886,310h-14.4a6,6,0,0,0,0,12h14.4a6,6,0,0,0,0-12Z" style="fill:url(#linear-gradient-9)"/><path d="M223.086,310h-81.6a6,6,0,0,0,0,12h81.6a6,6,0,0,0,0-12Z" style="fill:url(#linear-gradient-13)"/><path d="M449.156,491.129l-44.1-44.1A95.985,95.985,0,0,0,313,289.683V56.629A45.663,45.663,0,0,0,267.086,11h-160A45.811,45.811,0,0,0,61,56.629v350C61,431.993,81.722,453,107.086,453H266.471a96.149,96.149,0,0,0,130.091,2.6l44.11,44.063a6.016,6.016,0,0,0,8.484-8.531ZM107.086,23h160A33.649,33.649,0,0,1,301,56.629V71H287.086a6,6,0,0,0,0,12H301V293.023C291,296.7,280.713,302,271.812,310H257.886a6,6,0,0,0,0,12h1.8a90.662,90.662,0,0,0-21.471,47H73V83H236.086a6,6,0,0,0,0-12H73V56.629A33.8,33.8,0,0,1,107.086,23ZM73,406.629V381H237.117c-.029,1-.048,1.929-.048,2.9,0,20.844,6.6,40.1,18.806,57.1H107.086C88.338,441,73,425.377,73,406.629Zm200.672,36.295a84,84,0,0,1,0-118.794h0q1.464-1.466,2.987-2.839a6.011,6.011,0,0,0,3.34-2.88,83.964,83.964,0,1,1-6.327,124.514Z" style="fill:url(#linear-gradient-14)"/></svg>
