<svg height="492pt" viewBox="0 -36 492 492" width="492pt" xmlns="http://www.w3.org/2000/svg" xmlns:xlink="http://www.w3.org/1999/xlink"><linearGradient id="a"><stop offset=".322" stop-color="#a163f5"/><stop offset=".466" stop-color="#b074ee"/><stop offset=".752" stop-color="#d8a1dd"/><stop offset=".898" stop-color="#efbad3"/></linearGradient><linearGradient id="b" gradientUnits="userSpaceOnUse" x1="246" x2="246" xlink:href="#a" y1="437.619" y2="-21.584"/><linearGradient id="c" gradientUnits="userSpaceOnUse" x1="393.632" x2="393.632" xlink:href="#a" y1="437.619" y2="-21.584"/><linearGradient id="d" gradientUnits="userSpaceOnUse" x1="27.621" x2="27.621" xlink:href="#a" y1="437.619" y2="-21.584"/><linearGradient id="e" gradientUnits="userSpaceOnUse" x1="68.677" x2="68.677" xlink:href="#a" y1="437.619" y2="-21.584"/><linearGradient id="f" gradientUnits="userSpaceOnUse" x1="109.733" x2="109.733" xlink:href="#a" y1="437.619" y2="-21.584"/><linearGradient id="g" gradientUnits="userSpaceOnUse" x1="150.789" x2="150.789" xlink:href="#a" y1="437.619" y2="-21.584"/><linearGradient id="h" gradientUnits="userSpaceOnUse" x1="191.845" x2="191.845" xlink:href="#a" y1="437.619" y2="-21.584"/><path d="m448.277344 0h-301.765625c-24.136719.0273438-43.695313 19.585938-43.722657 43.71875v96.300781c-38.027343 3.625-67.082031 35.539063-67.132812 73.738281v46.660157c-7.53125 8.96875-13.386719 19.222656-17.28125 30.269531h-5.890625c-6.890625.007812-12.4765625 5.59375-12.484375 12.484375v38.898437c.0117188 6.890626 5.59375 12.472657 12.484375 12.484376h5.890625c6.34375 17.984374 17.816406 33.71875 33 45.257812 34.53125 26.097656 82.191406 26.097656 116.722656 0 15.183594-11.539062 26.65625-27.273438 33-45.257812h5.890625c6.890625-.011719 12.472657-5.59375 12.484375-12.484376v-38.898437c-.007812-6.894531-5.59375-12.476563-12.484375-12.484375h-5.886719c-3.453124-9.808594-8.457031-18.996094-14.820312-27.214844h262c24.132812-.03125 43.691406-19.585937 43.71875-43.71875v-176.035156c-.027344-24.132812-19.585938-43.6914062-43.722656-43.71875zm31.722656 94.785156h-365.210938v-30.863281h365.210938zm-370.269531 56.902344c34.269531.035156 62.039062 27.804688 62.078125 62.074219v34.652343c-1.363282-1.144531-2.746094-2.265624-4.175782-3.332031-1.078124-.808593-2.167968-1.589843-3.277343-2.347656v-28.976563c-.128907-30.074218-24.546875-54.390624-54.621094-54.390624-30.078125 0-54.496094 24.316406-54.625 54.390624v28.988282c-1.261719.863281-2.507813 1.75-3.738281 2.679687-1.265625.960938-2.5 1.960938-3.714844 2.980469v-34.648438c.039062-34.265624 27.808594-62.035156 62.074219-62.074218zm0 74.167969c-14.777344-.035157-29.363281 3.34375-42.621094 9.867187v-21.964844c.113281-23.460937 19.164063-42.417968 42.625-42.417968 23.457031 0 42.507813 18.957031 42.621094 42.417968v21.96875c-13.257813-6.523437-27.84375-9.902343-42.625-9.871093zm51.117187 164.390625c-30.246094 22.855468-71.984375 22.855468-102.230468 0-12.152344-9.242188-21.613282-21.5625-27.398438-35.691406h157.035156c-5.789062 14.128906-15.25 26.449218-27.40625 35.691406zm46.617188-87.074219v38.898437c0 .269532-.214844.484376-.484375.484376h-194.496094c-.269531 0-.484375-.214844-.484375-.484376v-38.898437c0-.265625.214844-.484375.484375-.484375h194.5c.265625 0 .480469.21875.480469.484375zm-176.253906-12.484375c5.789062-14.128906 15.25-26.453125 27.40625-35.695312 1.832031-1.386719 3.703124-2.691407 5.621093-3.914063.085938-.050781.171875-.097656.253907-.15625 27.648437-17.429687 62.847656-17.425781 90.492187.007813l.050781.03125c1.839844 1.171874 3.644532 2.414062 5.410156 3.730468 12.347657 9.273438 21.957032 21.710938 27.816407 36zm417.066406-39.214844h-264.46875v-37.714844c-.050782-38.921874-30.1875-71.183593-69.019532-73.878906v-33.09375h365.210938v112.96875c-.019531 17.507813-14.210938 31.699219-31.722656 31.71875zm31.722656-199.550781h-365.210938v-8.199219c.019532-17.511718 14.210938-31.703125 31.722657-31.722656h301.765625c17.511718.019531 31.703125 14.210938 31.722656 31.71875zm0 0" fill="url(#b)"/><path d="m412.492188 143.144531c-6.570313.003907-13.039063 1.59375-18.859376 4.640625-17.175781-8.972656-38.292968-4.632812-50.539062 10.382813-12.246094 15.019531-12.246094 36.574219 0 51.59375 12.246094 15.015625 33.363281 19.355469 50.539062 10.382812 15.023438 7.832031 33.324219 5.566407 45.984376-5.691406 12.660156-11.261719 17.046874-29.171875 11.023437-45.007813-6.023437-15.835937-21.207031-26.300781-38.148437-26.300781zm-66.539063 40.820313c0-15.914063 12.902344-28.816406 28.816406-28.816406 15.917969 0 28.820313 12.902343 28.820313 28.820312 0 15.914062-12.902344 28.816406-28.820313 28.816406-15.90625-.019531-28.800781-12.910156-28.816406-28.820312zm66.539063 28.820312c-2.628907-.003906-5.242188-.363281-7.769532-1.074218 14.492188-15.660157 14.492188-39.832032 0-55.492188 10.820313-3.03125 22.417969.503906 29.710938 9.058594 7.289062 8.554687 8.9375 20.570312 4.226562 30.773437-4.714844 10.203125-14.929687 16.738281-26.167968 16.734375zm0 0" fill="url(#c)"/><path d="m18.210938 322.621094c0 5.199218 4.210937 9.410156 9.410156 9.410156 5.199218 0 9.410156-4.214844 9.410156-9.410156 0-5.199219-4.210938-9.414063-9.410156-9.414063-5.195313.007813-9.40625 4.21875-9.410156 9.414063zm9.410156-2.589844c1.429687 0 2.589844 1.160156 2.589844 2.589844 0 1.429687-1.160157 2.589844-2.589844 2.589844-1.429688 0-2.589844-1.160157-2.589844-2.589844.003906-1.429688 1.160156-2.585938 2.589844-2.589844zm0 0" fill="url(#d)"/><path d="m68.675781 332.03125c5.199219.003906 9.414063-4.210938 9.414063-9.410156 0-5.199219-4.214844-9.414063-9.414063-9.414063-5.195312 0-9.410156 4.214844-9.410156 9.414063.007813 5.195312 4.214844 9.40625 9.410156 9.410156zm0-12c1.429688 0 2.589844 1.160156 2.589844 2.589844 0 1.429687-1.160156 2.589844-2.589844 2.589844-1.429687 0-2.585937-1.160157-2.585937-2.589844 0-1.429688 1.160156-2.585938 2.585937-2.589844zm0 0" fill="url(#e)"/><path d="m109.730469 332.03125c5.199219.003906 9.414062-4.210938 9.414062-9.410156 0-5.199219-4.214843-9.414063-9.410156-9.414063-5.199219 0-9.414063 4.214844-9.414063 9.414063.007813 5.195312 4.214844 9.40625 9.410157 9.410156zm0-12c1.429687 0 2.589843 1.160156 2.589843 2.589844.003907 1.429687-1.15625 2.585937-2.585937 2.589844-1.429687 0-2.589844-1.160157-2.589844-2.589844.003907-1.429688 1.160157-2.585938 2.585938-2.589844zm0 0" fill="url(#f)"/><path d="m150.789062 332.03125c5.199219 0 9.414063-4.210938 9.414063-9.410156 0-5.199219-4.214844-9.414063-9.414063-9.414063-5.199218 0-9.414062 4.214844-9.414062 9.414063.007812 5.195312 4.21875 9.40625 9.414062 9.410156zm0-12c1.429688 0 2.589844 1.160156 2.589844 2.589844 0 1.429687-1.160156 2.589844-2.589844 2.589844-1.429687 0-2.589843-1.160157-2.589843-2.589844.003906-1.429688 1.160156-2.585938 2.589843-2.589844zm0 0" fill="url(#g)"/><path d="m191.84375 332.03125c5.199219.003906 9.414062-4.210938 9.414062-9.410156 0-5.199219-4.214843-9.414063-9.414062-9.414063-5.195312 0-9.410156 4.214844-9.410156 9.414063.007812 5.195312 4.214844 9.40625 9.410156 9.410156zm0-12c1.429688 0 2.589844 1.160156 2.589844 2.589844 0 1.429687-1.160156 2.589844-2.589844 2.589844s-2.585938-1.160157-2.585938-2.589844c0-1.429688 1.160157-2.585938 2.585938-2.589844zm0 0" fill="url(#h)"/></svg>