<?xml version="1.0" encoding="utf-8"?>
<!-- Generator: Adobe Illustrator 15.0.0, SVG Export Plug-In . SVG Version: 6.00 Build 0)  -->
<!DOCTYPE svg PUBLIC "-//W3C//DTD SVG 1.1//EN" "http://www.w3.org/Graphics/SVG/1.1/DTD/svg11.dtd" [
	<!ENTITY ns_flows "http://ns.adobe.com/Flows/1.0/">
	<!ENTITY ns_extend "http://ns.adobe.com/Extensibility/1.0/">
	<!ENTITY ns_ai "http://ns.adobe.com/AdobeIllustrator/10.0/">
	<!ENTITY ns_graphs "http://ns.adobe.com/Graphs/1.0/">
]>
<svg version="1.1" id="Layer_1" xmlns:x="&ns_extend;" xmlns:i="&ns_ai;" xmlns:graph="&ns_graphs;"
	 xmlns="http://www.w3.org/2000/svg" xmlns:xlink="http://www.w3.org/1999/xlink" xmlns:a="http://ns.adobe.com/AdobeSVGViewerExtensions/3.0/"
	 x="0px" y="0px" width="623.62px" height="314.737px" viewBox="0 0 623.62 314.737" enable-background="new 0 0 623.62 314.737"
	 xml:space="preserve">
<g>
	<path fill="#FFFFFF" d="M27.27,171.5h15.393v27.688h28.387V171.5h15.393v69.967H71.049v-28.087H42.662v28.087H27.27V171.5z"/>
	<path fill="#FFFFFF" d="M129.222,171.5h52.774v13.693h-37.482v14.194H177.5v13.694h-32.986v14.691h37.981v13.693h-53.273V171.5z"/>
	<path fill="#FFFFFF" d="M222.178,171.5h27.287c21.988,0,37.182,15.095,37.182,34.785v0.198c0,19.69-15.193,34.983-37.182,34.983
		h-27.287V171.5z M237.57,185.395v42.18h11.895c12.594,0,21.09-8.497,21.09-20.89v-0.202c0-12.393-8.496-21.088-21.09-21.088H237.57
		z"/>
	<path fill="#FFFFFF" d="M323.23,206.685v-0.202c0-19.889,15.691-36.182,37.282-36.182c21.589,0,37.081,16.092,37.081,35.983v0.198
		c0,19.893-15.691,36.184-37.281,36.184C338.724,242.667,323.23,226.574,323.23,206.685z M381.502,206.685v-0.202
		c0-11.993-8.796-21.989-21.189-21.989c-12.395,0-20.99,9.795-20.99,21.791v0.198c0,11.996,8.796,21.989,21.19,21.989
		C372.905,228.472,381.502,218.677,381.502,206.685z"/>
	<path fill="#FFFFFF" d="M437.274,171.5h14.194l32.784,43.08V171.5h15.192v69.967h-13.094l-33.884-44.479v44.479h-15.193V171.5z"/>
	<path fill="#FFFFFF" d="M542.226,171.5H595v13.693h-37.48v14.194h32.983v13.694H557.52v14.691h37.981v13.693h-53.275V171.5z"/>
</g>
<g>
	<path fill="#FFFFFF" d="M171.909,272.639h8.112c4.82,0,7.818,2.733,7.818,6.88v0.059c0,4.612-3.703,7.021-8.229,7.021h-4.087v6.615
		h-3.614V272.639z M179.729,283.337c2.732,0,4.438-1.528,4.438-3.674v-0.059c0-2.41-1.734-3.673-4.438-3.673h-4.205v7.405H179.729z"
		/>
	<path fill="#FFFFFF" d="M201.542,272.639h9.171c2.585,0,4.613,0.765,5.937,2.058c1.089,1.117,1.706,2.645,1.706,4.438v0.06
		c0,3.381-2.027,5.408-4.88,6.229l5.555,7.791h-4.292l-5.054-7.171h-4.526v7.171h-3.616V272.639z M210.447,282.839
		c2.586,0,4.233-1.353,4.233-3.44v-0.058c0-2.205-1.588-3.409-4.263-3.409h-5.26v6.907H210.447z"/>
	<path fill="#FFFFFF" d="M231.881,282.986v-0.06c0-5.79,4.467-10.64,10.787-10.64c6.318,0,10.729,4.79,10.729,10.58v0.06
		c0,5.792-4.468,10.64-10.787,10.64C236.289,293.566,231.881,288.777,231.881,282.986z M249.605,282.986v-0.06
		c0-3.995-2.91-7.318-6.996-7.318s-6.938,3.264-6.938,7.259v0.06c0,3.997,2.911,7.291,6.996,7.291
		C246.754,290.217,249.605,286.982,249.605,282.986z"/>
	<path fill="#FFFFFF" d="M267.775,272.639h8.113c4.818,0,7.818,2.733,7.818,6.88v0.059c0,4.612-3.704,7.021-8.23,7.021h-4.087v6.615
		h-3.614V272.639z M275.594,283.337c2.732,0,4.439-1.528,4.439-3.674v-0.059c0-2.41-1.736-3.673-4.439-3.673h-4.204v7.405H275.594z"
		/>
	<path fill="#FFFFFF" d="M297.408,272.639h15.255v3.233h-11.64v5.351h10.316v3.232h-10.316v5.524h11.785v3.234h-15.4V272.639z"/>
	<path fill="#FFFFFF" d="M327.1,272.639h9.172c2.586,0,4.614,0.765,5.938,2.058c1.087,1.117,1.704,2.645,1.704,4.438v0.06
		c0,3.381-2.028,5.408-4.88,6.229l5.557,7.791h-4.293l-5.055-7.171h-4.527v7.171H327.1V272.639z M336.007,282.839
		c2.587,0,4.231-1.353,4.231-3.44v-0.058c0-2.205-1.588-3.409-4.261-3.409h-5.263v6.907H336.007z"/>
	<path fill="#FFFFFF" d="M363.316,275.99h-6.525v-3.351h16.695v3.351h-6.525v17.225h-3.645V275.99z"/>
	<path fill="#FFFFFF" d="M387.512,272.639h3.616v20.575h-3.616V272.639z"/>
	<path fill="#FFFFFF" d="M406.619,272.639h15.258v3.233h-11.642v5.351h10.317v3.232h-10.317v5.524h11.787v3.234h-15.403V272.639z"/>
	<path fill="#FFFFFF" d="M434.93,290.217l2.176-2.589c1.969,1.705,3.968,2.676,6.496,2.676c2.233,0,3.645-1.058,3.645-2.586v-0.061
		c0-1.468-0.823-2.261-4.643-3.145c-4.381-1.059-6.851-2.352-6.851-6.143v-0.06c0-3.526,2.94-5.966,7.026-5.966
		c2.998,0,5.379,0.912,7.466,2.585l-1.94,2.734c-1.854-1.381-3.703-2.115-5.585-2.115c-2.116,0-3.352,1.087-3.352,2.439v0.059
		c0,1.588,0.941,2.293,4.908,3.235c4.352,1.056,6.586,2.615,6.586,6.022v0.06c0,3.85-3.028,6.143-7.35,6.143
		C440.368,293.507,437.399,292.422,434.93,290.217z"/>
</g>
<g>
	<polygon fill="#FFFFFF" points="346.229,103.347 346.196,103.327 342.447,101.017 342.447,33.037 335,37.634 335,96.423 
		331.258,94.112 331.258,39.943 323.799,44.542 323.799,89.511 320.063,87.206 320.063,46.844 312.611,51.446 312.611,82.607 
		308.861,80.294 308.861,53.757 301.415,58.353 301.415,133.559 301.462,133.559 308.861,133.559 312.611,133.559 320.063,133.559 
		323.799,133.559 331.258,133.559 335,133.559 342.447,133.559 346.196,133.559 346.229,133.559 347.702,133.559 353.623,133.559 
		353.623,35.287 346.229,30.723 	"/>
	<polygon fill="#FFFFFF" points="256.633,126.176 196.874,126.176 196.874,133.559 256.633,133.559 260.229,133.559 264.09,133.559 
		264.09,96.4 256.633,101 	"/>
	<polygon fill="#FFFFFF" points="279.029,133.559 286.475,133.559 286.475,82.59 279.029,87.183 	"/>
	<polygon fill="#FFFFFF" points="267.833,133.559 275.281,133.559 275.281,89.494 267.833,94.093 	"/>
	<polygon fill="#FFFFFF" points="290.222,133.559 297.594,133.559 297.594,75.73 290.222,80.279 	"/>
	<polygon fill="#FFFFFF" points="392.47,126.176 392.47,59.254 357.369,37.596 357.369,133.559 386.478,133.559 392.47,133.559 
		424.844,133.559 424.844,126.176 	"/>
</g>
</svg>
