<?xml version="1.0" encoding="utf-8"?>
<!-- Generator: Adobe Illustrator 15.0.0, SVG Export Plug-In . SVG Version: 6.00 Build 0)  -->
<!DOCTYPE svg PUBLIC "-//W3C//DTD SVG 1.1//EN" "http://www.w3.org/Graphics/SVG/1.1/DTD/svg11.dtd">
<svg version="1.1" id="Layer_1" xmlns="http://www.w3.org/2000/svg" xmlns:xlink="http://www.w3.org/1999/xlink" x="0px" y="0px"
	 width="841.889px" height="595.281px" viewBox="0 0 841.889 595.281" enable-background="new 0 0 841.889 595.281"
	 xml:space="preserve">
<g id="XMLID_822_">
	<path id="XMLID_823_" fill="#FFFFFF" d="M695.382,124.135c-21.487-25.544-61.16-35.963-136.926-35.963H283.427
		c-77.499,0-117.844,11.092-139.251,38.286c-20.871,26.515-20.871,65.583-20.871,119.653v103.059
		c0,104.752,24.764,157.938,160.122,157.938h275.031c65.703,0,102.111-9.194,125.665-31.736
		c24.155-23.116,34.461-60.858,34.461-126.201V246.112C718.584,189.09,716.97,149.792,695.382,124.135z M505.477,311.87
		l-124.89,65.271c-2.792,1.459-5.846,2.183-8.896,2.183c-3.452,0-6.897-0.929-9.948-2.776c-5.745-3.481-9.254-9.709-9.254-16.426
		V229.997c0-6.705,3.499-12.927,9.232-16.41c5.736-3.483,12.87-3.722,18.82-0.63l124.89,64.851
		c6.354,3.3,10.345,9.859,10.354,17.016C515.794,301.986,511.821,308.555,505.477,311.87z"/>
</g>
</svg>
